<?xml version="1.0" encoding="UTF-8" standalone="no"?>
<!DOCTYPE svg PUBLIC "-//W3C//DTD SVG 1.1//EN" "http://www.w3.org/Graphics/SVG/1.1/DTD/svg11.dtd">
<svg width="100%" height="100%" viewBox="0 0 286 117" version="1.1" xmlns="http://www.w3.org/2000/svg" xmlns:xlink="http://www.w3.org/1999/xlink" xml:space="preserve" xmlns:serif="http://www.serif.com/" style="fill-rule:evenodd;clip-rule:evenodd;stroke-linejoin:round;stroke-miterlimit:2;">
    <g transform="matrix(1,0,0,1,-730.318,-444.8)">
        <g transform="matrix(1,0,0,1,-28,406.05)">
            <path d="M859.56,136.3C856.06,136.3 853.22,133.46 853.22,129.96C853.22,126.46 856.06,123.61 859.56,123.61L940.46,123.56C943.96,123.56 946.8,126.4 946.8,129.9C946.8,133.4 943.96,136.25 940.46,136.25L859.56,136.3Z" style="fill:rgb(241,180,52);fill-rule:nonzero;"/>
        </g>
        <g transform="matrix(1,0,0,1,-28,406.05)">
            <path d="M1027.33,83.15C1022.81,80.1 1017.59,78.02 1012.27,77.15L975.18,70.76L945.66,49.34L945.07,48.96C933.32,42.28 919.96,38.75 906.45,38.75L876.27,38.75C864.88,38.75 853.4,41.31 842.89,46.24L791.77,72.38L776.53,71.63C771.71,71.46 767.4,74.68 766.21,79.33L758.76,108.49L758.7,108.76C756.77,117.99 762.33,127.16 771.39,129.73L777.52,131.81C780.84,132.94 784.44,131.16 785.57,127.84C786.7,124.52 784.92,120.92 781.6,119.79L775.31,117.66L774.93,117.54C772.26,116.82 770.61,114.16 771.11,111.46L778.03,84.4L794.56,85.22L848.5,57.64C857.14,53.59 866.76,51.45 876.3,51.45L887.63,51.45L887.63,77.69L835.44,77.69C832.64,77.69 830.36,79.96 830.36,82.77C830.36,85.58 832.63,87.85 835.44,87.85L941.04,87.85C943.84,87.85 946.12,85.58 946.12,82.77C946.12,79.96 943.85,77.69 941.04,77.69L897.78,77.69L897.78,51.45L906.48,51.45C917.69,51.45 928.77,54.35 938.54,59.83L970.16,82.77L1010.21,89.67C1013.84,90.26 1017.22,91.61 1020.48,93.8C1027.45,98.51 1031.61,106.34 1031.61,114.75L1031.61,122.77C1031.61,123.19 1031.27,123.53 1030.85,123.53L1021.09,123.53C1017.59,123.53 1014.75,126.37 1014.75,129.87C1014.75,133.37 1017.59,136.21 1021.09,136.21L1030.85,136.21C1038.27,136.21 1044.3,130.18 1044.3,122.76L1044.3,114.74C1044.25,102.12 1038,90.35 1027.33,83.15Z" style="fill:rgb(241,180,52);fill-rule:nonzero;"/>
        </g>
        <g transform="matrix(1,0,0,1,-28,406.05)">
            <g>
                <path d="M819.34,155.11C803.02,155.11 789.73,141.83 789.73,125.5C789.73,109.18 803.01,95.89 819.34,95.89C835.67,95.89 848.95,109.17 848.95,125.5C848.95,141.83 835.67,155.11 819.34,155.11ZM819.34,109.85C810.71,109.85 803.69,116.87 803.69,125.5C803.69,134.13 810.71,141.15 819.34,141.15C827.97,141.15 834.99,134.13 834.99,125.5C834.99,116.87 827.97,109.85 819.34,109.85Z" style="fill:rgb(150,205,195);fill-rule:nonzero;"/>
            </g>
        </g>
        <g transform="matrix(1,0,0,1,-28,406.05)">
            <g>
                <path d="M981.09,155.11C964.77,155.11 951.48,141.83 951.48,125.5C951.48,109.18 964.76,95.89 981.09,95.89C997.42,95.89 1010.7,109.17 1010.7,125.5C1010.7,141.83 997.42,155.11 981.09,155.11ZM981.09,109.85C972.46,109.85 965.44,116.87 965.44,125.5C965.44,134.13 972.46,141.15 981.09,141.15C989.72,141.15 996.74,134.13 996.74,125.5C996.74,116.87 989.72,109.85 981.09,109.85Z" style="fill:rgb(150,205,195);fill-rule:nonzero;"/>
            </g>
        </g>
    </g>
</svg>
