<?xml version="1.0" encoding="utf-8"?>
<!-- Generator: Adobe Illustrator 24.1.2, SVG Export Plug-In . SVG Version: 6.00 Build 0)  -->
<svg version="1.1" id="Layer_1" xmlns="http://www.w3.org/2000/svg" xmlns:xlink="http://www.w3.org/1999/xlink" x="0px" y="0px"
	 viewBox="0 0 1080 400" style="enable-background:new 0 0 1080 400;" xml:space="preserve">
<style type="text/css">
	.st0{fill:#F1B434;}
	.st1{fill:#96CDC3;}
</style>
<g>
	<g>
		<path class="st0" d="M143.34,254.21c-34.83,0-63.17-28.34-63.17-63.18c0-34.83,28.34-63.17,63.17-63.17
			c20.76,0,40.2,10.21,52.01,27.31c4.67,6.77,2.97,16.04-3.79,20.71c-6.77,4.67-16.04,2.98-20.71-3.79
			c-6.25-9.05-16.53-14.45-27.51-14.45c-18.42,0-33.4,14.98-33.4,33.4s14.98,33.4,33.4,33.4c12.85,0,24.35-7.18,30.01-18.73
			c3.62-7.38,12.53-10.44,19.92-6.82c7.38,3.62,10.44,12.54,6.82,19.92C189.39,240.64,167.64,254.21,143.34,254.21z"/>
	</g>
</g>
<g>
	<g>
		<path class="st1" d="M527.17,254.21c-34.83,0-63.17-28.34-63.17-63.18c0-34.83,28.34-63.17,63.17-63.17s63.17,28.34,63.17,63.17
			C590.34,225.87,562,254.21,527.17,254.21z M527.17,157.64c-18.42,0-33.4,14.98-33.4,33.4s14.98,33.4,33.4,33.4
			c18.42,0,33.4-14.98,33.4-33.4S545.58,157.64,527.17,157.64z"/>
	</g>
</g>
<g>
	<g>
		<path class="st1" d="M662.33,254.21c-34.83,0-63.17-28.34-63.17-63.18c0-34.83,28.34-63.17,63.17-63.17
			c34.83,0,63.17,28.34,63.17,63.17C725.5,225.87,697.16,254.21,662.33,254.21z M662.33,157.64c-18.42,0-33.4,14.98-33.4,33.4
			s14.98,33.4,33.4,33.4c18.42,0,33.4-14.98,33.4-33.4S680.75,157.64,662.33,157.64z"/>
	</g>
</g>
<g>
	<path class="st1" d="M860.67,191.03c0-34.83-28.34-63.17-63.18-63.17c-34.83,0-63.17,28.34-63.17,63.17
		c0,34.84,28.34,63.18,63.17,63.18c12.2,0,23.57-3.54,33.24-9.55c-1.58,16.96-15.88,30.29-33.24,30.29
		c-9.03,0-17.48-3.54-23.81-9.98c-5.77-5.86-15.19-5.94-21.05-0.18c-5.86,5.76-5.94,15.19-0.18,21.05
		c11.97,12.17,27.97,18.88,45.04,18.88c34.84,0,63.18-28.34,63.18-63.17v-48.36c0-0.25-0.06-0.48-0.07-0.72
		C860.61,191.98,860.67,191.52,860.67,191.03z M797.49,224.43c-18.42,0-33.4-14.98-33.4-33.4s14.98-33.4,33.4-33.4
		s33.4,14.98,33.4,33.4S815.91,224.43,797.49,224.43z"/>
</g>
<g>
	<path class="st0" d="M335.06,191.03c0-34.83-28.34-63.17-63.17-63.17s-63.17,28.34-63.17,63.17c0,34.84,28.34,63.18,63.17,63.18
		c12.91,0,24.91-3.91,34.93-10.58c2.41,4.97,7.46,8.43,13.36,8.43c8.22,0,14.89-6.67,14.89-14.89v-45.2c0-0.11-0.03-0.21-0.03-0.31
		C335.03,191.45,335.06,191.24,335.06,191.03z M271.89,224.43c-18.42,0-33.4-14.98-33.4-33.4s14.98-33.4,33.4-33.4
		s33.4,14.98,33.4,33.4S290.3,224.43,271.89,224.43z"/>
</g>
<g>
	<path class="st0" d="M458.12,148.57c-11.95-13.16-29-20.71-46.77-20.71c-13.23,0-25.51,4.1-35.67,11.08
		c-2.63-4.22-7.27-7.06-12.62-7.06c-8.22,0-14.89,6.67-14.89,14.89v44.26v0.94v45.2c0,8.22,6.67,14.89,14.89,14.89
		s14.89-6.67,14.89-14.89v-45.2v-0.94c0-18.42,14.98-33.4,33.4-33.4c9.4,0,18.41,3.99,24.73,10.95c5.53,6.09,14.94,6.54,21.03,1.01
		C463.2,164.07,463.65,154.66,458.12,148.57z"/>
</g>
<g>
	<path class="st1" d="M995.83,191.03c0-34.83-28.34-63.17-63.17-63.17c-34.83,0-63.17,28.34-63.17,63.17
		c0,34.84,28.34,63.18,63.17,63.18c12.91,0,24.91-3.91,34.93-10.58c2.41,4.97,7.46,8.43,13.36,8.43c8.22,0,14.89-6.67,14.89-14.89
		v-45.2c0-0.11-0.03-0.21-0.03-0.31C995.8,191.45,995.83,191.24,995.83,191.03z M932.66,224.43c-18.42,0-33.4-14.98-33.4-33.4
		s14.98-33.4,33.4-33.4c18.42,0,33.4,14.98,33.4,33.4S951.08,224.43,932.66,224.43z"/>
</g>
</svg>
