<svg id="Layer_1" xmlns="http://www.w3.org/2000/svg" x="0px" y="0px"
	 viewBox="0 0 1080 211.9" style="enable-background:new 0 0 1080 211.9;">
<style type="text/css">
	.st0{fill:#F1B434;}
	.st1{fill:#96CDC3;}
	.st2{fill:none;stroke:#EFB23D;stroke-width:4;stroke-miterlimit:10;}
	.st3{fill:none;stroke:#EFB23D;stroke-width:4;stroke-linecap:round;stroke-miterlimit:10;}
</style>
<g>
	<g>
		<path class="st0" d="M80.21,148.64c-26.72,0-48.45-21.74-48.45-48.46c0-26.72,21.74-48.45,48.45-48.45
			c15.92,0,30.84,7.83,39.89,20.95c3.58,5.19,2.28,12.3-2.91,15.88c-5.19,3.58-12.3,2.28-15.89-2.91
			c-4.79-6.94-12.68-11.09-21.1-11.09c-14.13,0-25.62,11.49-25.62,25.62s11.49,25.62,25.62,25.62c9.86,0,18.68-5.5,23.02-14.36
			c2.77-5.66,9.61-8.01,15.28-5.23c5.66,2.78,8,9.62,5.23,15.28C115.53,138.24,98.85,148.64,80.21,148.64z"/>
	</g>
</g>
<g>
	<g>
		<path class="st1" d="M374.61,148.64c-26.72,0-48.45-21.74-48.45-48.46c0-26.72,21.74-48.45,48.45-48.45
			c26.72,0,48.45,21.74,48.45,48.45C423.06,126.91,401.32,148.64,374.61,148.64z M374.61,74.57c-14.13,0-25.62,11.49-25.62,25.62
			s11.49,25.62,25.62,25.62c14.13,0,25.62-11.49,25.62-25.62S388.73,74.57,374.61,74.57z"/>
	</g>
</g>
<g>
	<g>
		<path class="st1" d="M478.28,148.64c-26.72,0-48.45-21.74-48.45-48.46c0-26.72,21.74-48.45,48.45-48.45s48.45,21.74,48.45,48.45
			C526.73,126.91,505,148.64,478.28,148.64z M478.28,74.57c-14.13,0-25.62,11.49-25.62,25.62s11.49,25.62,25.62,25.62
			s25.62-11.49,25.62-25.62S492.4,74.57,478.28,74.57z"/>
	</g>
</g>
<g>
	<path class="st1" d="M630.41,100.19c0-26.72-21.74-48.45-48.46-48.45c-26.72,0-48.45,21.74-48.45,48.45
		c0,26.72,21.74,48.46,48.45,48.46c9.36,0,18.08-2.71,25.5-7.33c-1.21,13.01-12.18,23.23-25.5,23.23c-6.92,0-13.41-2.72-18.27-7.66
		c-4.42-4.5-11.65-4.56-16.15-0.14c-4.5,4.42-4.56,11.65-0.14,16.15c9.18,9.34,21.45,14.48,34.55,14.48
		c26.72,0,48.46-21.74,48.46-48.45v-37.09c0-0.19-0.05-0.36-0.06-0.55C630.36,100.92,630.41,100.56,630.41,100.19z M581.95,125.81
		c-14.13,0-25.62-11.49-25.62-25.62s11.49-25.62,25.62-25.62c14.13,0,25.62,11.49,25.62,25.62S596.08,125.81,581.95,125.81z"/>
</g>
<g>
	<path class="st0" d="M227.26,100.19c0-26.72-21.74-48.45-48.45-48.45s-48.45,21.74-48.45,48.45c0,26.72,21.74,48.46,48.45,48.46
		c9.9,0,19.11-3,26.79-8.11c1.85,3.81,5.72,6.47,10.25,6.47c6.31,0,11.42-5.11,11.42-11.42v-34.67c0-0.08-0.02-0.16-0.02-0.24
		C227.24,100.51,227.26,100.35,227.26,100.19z M178.8,125.81c-14.13,0-25.62-11.49-25.62-25.62s11.49-25.62,25.62-25.62
		c14.13,0,25.62,11.49,25.62,25.62S192.93,125.81,178.8,125.81z"/>
</g>
<g>
	<path class="st0" d="M321.65,67.62c-9.17-10.09-22.24-15.88-35.88-15.88c-10.15,0-19.57,3.15-27.36,8.5
		c-2.02-3.24-5.58-5.42-9.68-5.42c-6.31,0-11.42,5.11-11.42,11.42v33.95v0.72v34.67c0,6.31,5.11,11.42,11.42,11.42
		s11.42-5.11,11.42-11.42v-34.67v-0.72c0-14.13,11.49-25.62,25.62-25.62c7.21,0,14.12,3.06,18.97,8.4
		c4.24,4.67,11.46,5.02,16.13,0.78C325.54,79.51,325.89,72.29,321.65,67.62z"/>
</g>
<g>
	<path class="st1" d="M734.08,100.19c0-26.72-21.74-48.45-48.45-48.45s-48.45,21.74-48.45,48.45c0,26.72,21.74,48.46,48.45,48.46
		c9.9,0,19.11-3,26.79-8.11c1.85,3.81,5.72,6.47,10.25,6.47c6.31,0,11.42-5.11,11.42-11.42v-34.67c0-0.08-0.02-0.16-0.02-0.24
		C734.06,100.51,734.08,100.35,734.08,100.19z M685.63,125.81c-14.13,0-25.62-11.49-25.62-25.62s11.49-25.62,25.62-25.62
		c14.13,0,25.62,11.49,25.62,25.62S699.75,125.81,685.63,125.81z"/>
</g>
<g>
	<path class="st0" d="M859.56,136.3c-3.5,0-6.34-2.84-6.34-6.34c0-3.5,2.84-6.35,6.34-6.35l80.9-0.05c0,0,0,0,0,0
		c3.5,0,6.34,2.84,6.34,6.34c0,3.5-2.84,6.35-6.34,6.35L859.56,136.3C859.56,136.3,859.56,136.3,859.56,136.3z"/>
</g>
<g>
	<path class="st2" d="M793.4,81.46"/>
</g>
<g>
	<path class="st3" d="M923.27,92.09"/>
</g>
<g>
	<path class="st0" d="M909.91,92.09"/>
</g>
<g>
	<path class="st2" d="M830.73,117.38"/>
</g>
<g>
	<path class="st2" d="M830.73,59.58"/>
</g>
<path class="st0" d="M1027.33,83.15c-4.52-3.05-9.74-5.13-15.06-6l-37.09-6.39l-29.52-21.42l-0.59-0.38
	c-11.75-6.68-25.11-10.21-38.62-10.21h-30.18c-11.39,0-22.87,2.56-33.38,7.49l-51.12,26.14l-15.24-0.75
	c-4.82-0.17-9.13,3.05-10.32,7.7l-7.45,29.16l-0.06,0.27c-1.93,9.23,3.63,18.4,12.69,20.97l6.13,2.08c3.32,1.13,6.92-0.65,8.05-3.97
	c1.13-3.32-0.65-6.92-3.97-8.05l-6.29-2.13l-0.38-0.12c-2.67-0.72-4.32-3.38-3.82-6.08l6.92-27.06l16.53,0.82l53.94-27.58
	c8.64-4.05,18.26-6.19,27.8-6.19h11.33v26.24h-52.19c-2.8,0-5.08,2.27-5.08,5.08s2.27,5.08,5.08,5.08h105.6
	c2.8,0,5.08-2.27,5.08-5.08s-2.27-5.08-5.08-5.08h-43.26V51.45h8.7c11.21,0,22.29,2.9,32.06,8.38l31.62,22.94l40.05,6.9
	c3.63,0.59,7.01,1.94,10.27,4.13c6.97,4.71,11.13,12.54,11.13,20.95v8.02c0,0.42-0.34,0.76-0.76,0.76h-9.76
	c-3.5,0-6.34,2.84-6.34,6.34c0,3.5,2.84,6.34,6.34,6.34h9.76c7.42,0,13.45-6.03,13.45-13.45v-8.02
	C1044.25,102.12,1038,90.35,1027.33,83.15z"/>
<g>
	<g>
		<path class="st1" d="M819.34,155.11c-16.32,0-29.61-13.28-29.61-29.61c0-16.32,13.28-29.61,29.61-29.61s29.61,13.28,29.61,29.61
			C848.95,141.83,835.67,155.11,819.34,155.11z M819.34,109.85c-8.63,0-15.65,7.02-15.65,15.65s7.02,15.65,15.65,15.65
			s15.65-7.02,15.65-15.65S827.97,109.85,819.34,109.85z"/>
	</g>
</g>
<g>
	<g>
		<path class="st1" d="M981.09,155.11c-16.32,0-29.61-13.28-29.61-29.61c0-16.32,13.28-29.61,29.61-29.61s29.61,13.28,29.61,29.61
			C1010.7,141.83,997.42,155.11,981.09,155.11z M981.09,109.85c-8.63,0-15.65,7.02-15.65,15.65s7.02,15.65,15.65,15.65
			c8.63,0,15.65-7.02,15.65-15.65S989.72,109.85,981.09,109.85z"/>
	</g>
</g>
</svg>
