<svg viewBox="0 0 1292 588" style="fill-rule:evenodd;clip-rule:evenodd;stroke-linejoin:round;stroke-miterlimit:2;">
    <g transform="matrix(1,0,0,1,-92.6025,-361.141)">
        <g id="path22" transform="matrix(1.33333,0,0,-1.33333,386.143,831.732)">
            <path d="M0,0C-73.22,0 -132.788,59.569 -132.788,132.789C-132.788,206.008 -73.22,265.577 0,265.577C73.22,265.577 132.789,206.008 132.789,132.789C132.789,59.569 73.22,0 0,0M718.574,176.472L215.842,176.472C212.538,192.972 207.349,208.992 200.325,224.343C189.431,248.154 174.408,269.727 155.673,288.461C114.091,330.043 58.805,352.943 0,352.943C-58.806,352.943 -114.091,330.043 -155.673,288.461C-197.254,246.88 -220.155,191.594 -220.155,132.789C-220.155,73.982 -197.254,18.698 -155.673,-22.884C-114.091,-64.466 -58.806,-87.366 0,-87.366C58.806,-87.366 114.091,-64.466 155.673,-22.885C174.408,-4.149 189.431,17.423 200.326,41.234C207.349,56.586 212.538,72.605 215.842,89.106L457.839,89.106L457.839,50.119C457.839,33.735 471.121,20.454 487.504,20.454L515.54,20.454C531.923,20.454 545.206,33.735 545.206,50.119L545.206,89.106L606.15,89.106L606.15,3.186C606.15,-13.198 619.432,-26.479 635.816,-26.479L663.851,-26.479C680.235,-26.479 693.516,-13.198 693.516,3.186L693.516,89.106L718.574,89.106C734.958,89.106 748.239,102.388 748.239,118.771L748.239,146.807C748.239,163.19 734.958,176.472 718.574,176.472" style="fill:rgb(20, 80, 159);fill-rule:nonzero;"/>
        </g>
        <g id="path26" transform="matrix(1.33333,0,0,-1.33333,406.185,761.007)">
            <path d="M0,0L-1.062,-22.297L-34.171,-20.719L-33.077,2.255C-67.197,11.105 -80.565,38.611 -79.588,59.111L-42.87,57.361C-42.87,57.361 -41.102,32.888 -10.69,31.439C5.752,30.655 12.168,37.35 12.48,43.886C12.941,53.568 0.264,57.561 -13.768,61.617C-36.49,68.119 -76.399,78.597 -74.778,112.613C-73.651,136.264 -53.171,153.804 -25.669,157.687L-24.521,181.786L8.588,180.208L7.407,155.432C35.482,147.548 49.502,124.297 48.546,104.251L11.828,106C12.193,113.662 3.676,124.451 -12.095,125.203C-23.131,125.729 -36.883,121.419 -37.302,112.633C-37.656,105.201 -27.66,101.791 -6.304,95.125C17.5,87.668 51.129,77.938 49.519,44.152C48.317,18.923 28.355,2.715 0,0" style="fill:rgb(195, 0, 47);fill-rule:nonzero;"/>
        </g>
    </g>
</svg>
