<svg viewBox="0 0 1083 1083" xmlns="https://www.w3.org/2000/svg" style="fill-rule:evenodd;clip-rule:evenodd;stroke-linejoin:round;stroke-miterlimit:2;">
    <g transform="matrix(1,0,0,1,-178.821,-178.821)">
        <path id="path22" d="M1102.67,337.329C1000.46,235.113 864.554,178.821 720.001,178.821C575.446,178.821 439.544,235.113 337.327,337.329C235.115,439.544 178.822,575.446 178.822,720.001C178.822,818.685 205.518,914.823 256.138,998.861C248.548,1021.63 180.161,1226.79 180.161,1226.79L180.161,1226.79C177.033,1236.18 179.478,1246.53 186.474,1253.53C191.452,1258.51 198.13,1261.18 204.95,1261.18C207.715,1261.18 210.504,1260.74 213.211,1259.84C213.21,1259.84 441.137,1183.86 441.137,1183.86C525.178,1234.48 621.317,1261.18 720.001,1261.18C864.554,1261.18 1000.46,1204.89 1102.67,1102.67C1204.89,1000.46 1261.18,864.554 1261.18,720.001C1261.18,575.446 1204.89,439.544 1102.67,337.329L1102.67,337.329ZM720.001,1208.92C627.049,1208.92 536.615,1182.72 458.471,1133.15L458.471,1133.15C454.235,1130.46 449.376,1129.08 444.474,1129.08C441.697,1129.08 438.908,1129.53 436.215,1130.42L246.259,1193.74C246.259,1193.74 309.576,1003.79 309.576,1003.79C312.061,996.337 311.061,988.162 306.853,981.529L306.853,981.529C257.278,903.385 231.075,812.951 231.075,720.001C231.075,450.407 450.407,231.075 720.001,231.075C989.594,231.075 1208.92,450.407 1208.92,720.001C1208.92,989.594 989.594,1208.92 720.001,1208.92ZM772.133,720C772.133,690.923 748.56,667.349 719.482,667.349C690.403,667.349 666.831,690.923 666.831,720C666.831,749.078 690.403,772.651 719.482,772.651C748.56,772.651 772.133,749.078 772.133,720ZM953.466,720C953.466,690.923 929.893,667.349 900.815,667.349C871.737,667.349 848.165,690.923 848.165,720C848.165,749.078 871.737,772.651 900.815,772.651C929.893,772.651 953.466,749.078 953.466,720ZM585.603,720C585.603,690.923 562.031,667.349 532.952,667.349C503.875,667.349 480.301,690.923 480.301,720C480.301,749.078 503.875,772.651 532.952,772.651C562.031,772.651 585.603,749.078 585.603,720Z" style="fill:rgb(241,180,52);fill-rule:nonzero;"/>
    </g>
</svg>