<svg id="Layer_1" data-name="Layer 1" xmlns="http://www.w3.org/2000/svg" viewBox="0 0 77.82 18.43"><defs><style>.cls-1{fill:#414042;}</style></defs><path class="cls-1" d="M.7,0H17.16a.67.67,0,0,1,.49.21.67.67,0,0,1,.21.49V4.63a.69.69,0,0,1-.21.5.7.7,0,0,1-.49.2H7V7h8.49A.67.67,0,0,1,16,7.2a.65.65,0,0,1,.21.49V11.6a.67.67,0,0,1-.21.49.66.66,0,0,1-.49.2H7v5.13a.72.72,0,0,1-.7.7H.7a.65.65,0,0,1-.49-.21A.67.67,0,0,1,0,17.42V.7A.67.67,0,0,1,.21.21.65.65,0,0,1,.7,0Z"/><path class="cls-1" d="M20.54,0H37a.67.67,0,0,1,.49.21.66.66,0,0,1,.2.49V4.63a.68.68,0,0,1-.2.5.7.7,0,0,1-.49.2H26.83V7h8.49a.72.72,0,0,1,.7.7V11.6a.67.67,0,0,1-.21.49.64.64,0,0,1-.49.2H26.83v5.13a.7.7,0,0,1-.2.49.69.69,0,0,1-.5.21H20.54a.72.72,0,0,1-.7-.7V.7a.67.67,0,0,1,.21-.49A.67.67,0,0,1,20.54,0Z"/><path class="cls-1" d="M72.31,0h4.82a.67.67,0,0,1,.49.21.66.66,0,0,1,.2.49V17.42a.66.66,0,0,1-.2.49.67.67,0,0,1-.49.21H73a1.26,1.26,0,0,1-1-.54l-5.64-7.2v7a.72.72,0,0,1-.7.7H60.77a.65.65,0,0,1-.49-.21.67.67,0,0,1-.21-.49V.7a.67.67,0,0,1,.21-.49A.65.65,0,0,1,60.77,0H65a1.2,1.2,0,0,1,1,.52l5.64,7.79V.7a.67.67,0,0,1,.21-.49A.67.67,0,0,1,72.31,0Z"/><path class="cls-1" d="M55.73,16.54a11.68,11.68,0,0,1-7,1.89,11.66,11.66,0,0,1-7-1.89c-1.73-1.26-2.59-3.24-2.59-5.92V.7a.67.67,0,0,1,.21-.49.69.69,0,0,1,.5-.21h5.5a.69.69,0,0,1,.5.21A.65.65,0,0,1,46,.7V11a2,2,0,0,0,.72,1.63,3.65,3.65,0,0,0,3.92,0A2,2,0,0,0,51.4,11V.7a.65.65,0,0,1,.21-.49.69.69,0,0,1,.5-.21h5.5a.69.69,0,0,1,.5.21.67.67,0,0,1,.21.49v9.92C58.32,13.3,57.45,15.28,55.73,16.54Z"/></svg>