<svg viewBox="0 0 1133 1105" xmlns="https://www.w3.org/2000/svg" style="fill-rule:evenodd;clip-rule:evenodd;stroke-linejoin:round;stroke-miterlimit:2;">
    <g transform="matrix(1,0,0,1,-153.96,-152.029)">
        <path id="path26" d="M679.206,445.559C675.752,445.559 672.954,442.762 672.951,439.309C672.948,435.853 675.747,433.051 679.203,433.049L758.971,433.003C762.426,433.003 765.224,435.802 765.227,439.255C765.23,442.71 762.43,445.511 758.975,445.514L679.206,445.559ZM844.631,393.149C840.179,390.142 835.025,388.094 829.777,387.237L793.21,380.94L764.098,359.821L763.514,359.445C751.927,352.861 738.758,349.381 725.43,349.381L695.667,349.381C684.433,349.381 673.117,351.901 662.751,356.765L612.347,382.537L597.317,381.793C592.561,381.628 588.311,384.8 587.137,389.382L579.787,418.138L579.725,418.408C577.823,427.514 583.309,436.554 592.234,439.089L598.274,441.14C601.549,442.249 605.098,440.496 606.209,437.225C607.318,433.953 605.565,430.401 602.294,429.29L596.087,427.185L595.715,427.072C593.087,426.36 591.451,423.74 591.95,421.077L598.77,394.39L615.066,395.197L668.254,368C676.777,364.004 686.255,361.892 695.667,361.892L706.839,361.892L706.839,387.764L655.374,387.764C652.61,387.764 650.37,390.005 650.37,392.769C650.37,395.533 652.61,397.773 655.374,397.773L759.498,397.773C762.263,397.773 764.503,395.533 764.503,392.769C764.503,390.005 762.263,387.764 759.498,387.764L716.849,387.764L716.849,361.892L725.43,361.892C736.482,361.892 747.403,364.748 757.039,370.156L788.217,392.776L827.707,399.576C831.283,400.16 834.623,401.486 837.83,403.652C844.702,408.292 848.805,416.013 848.805,424.306L848.805,432.209C848.805,432.624 848.467,432.961 848.053,432.961L838.426,432.961C834.97,432.961 832.17,435.761 832.17,439.216C832.17,442.672 834.97,445.472 838.426,445.472L848.053,445.472C855.365,445.472 861.315,439.521 861.315,432.209L861.315,424.306C861.315,411.852 855.154,400.254 844.631,393.149Z" style="fill:#e0004d;fill-rule:nonzero;"/>
        <path id="path22" d="M1169.32,648.955C1197.84,648.955 1221.18,625.615 1221.18,597.09L1221.18,587.051C1221.18,585.419 1222.51,584.096 1224.14,584.096L1271.33,584.096C1279.45,584.096 1286.04,577.508 1286.04,569.382L1286.04,529.298C1286.04,516.646 1279.56,504.875 1268.87,498.111L723.378,153.008C721.316,151.703 718.685,151.703 716.622,153.008L165.394,501.742C158.276,506.246 153.96,514.083 153.96,522.507L153.96,581.14C153.96,582.772 155.282,584.096 156.914,584.096L215.864,584.096C217.496,584.096 218.818,585.419 218.818,587.051L218.818,598.84C218.818,626.518 241.256,648.955 268.932,648.955L310.204,648.955C311.836,648.955 313.158,650.278 313.158,651.91L313.158,1052.84C313.158,1054.47 311.836,1055.8 310.204,1055.8L267.181,1055.8C240.47,1055.8 218.818,1077.45 218.818,1104.16L218.818,1123.6C218.818,1125.23 217.496,1126.55 215.864,1126.55L202.322,1126.55C175.612,1126.55 153.96,1148.2 153.96,1174.91L153.96,1253.31C153.96,1254.95 155.282,1256.27 156.914,1256.27L1283.09,1256.27C1284.72,1256.27 1286.04,1254.95 1286.04,1253.31L1286.04,1176.67C1286.04,1148.99 1263.6,1126.55 1235.93,1126.55L1224.14,1126.55C1222.51,1126.55 1221.18,1125.23 1221.18,1123.6L1221.18,1105.91C1221.18,1078.23 1198.75,1055.8 1171.07,1055.8L1135.69,1055.8C1134.06,1055.8 1132.74,1054.47 1132.74,1052.84L1132.74,651.91C1132.74,650.278 1134.06,648.955 1135.69,648.955L1169.32,648.955ZM1234.18,1167.83C1240,1167.83 1244.77,1172.59 1244.77,1178.42L1244.77,1212.04C1244.77,1213.67 1243.44,1215 1241.81,1215L198.189,1215C196.557,1215 195.233,1213.67 195.233,1212.04L195.233,1176.67C195.233,1171.78 199.19,1167.83 204.073,1167.83L1234.18,1167.83ZM1169.32,1097.07C1175.14,1097.07 1179.91,1101.84 1179.91,1107.66L1179.91,1117.7C1179.91,1119.33 1178.59,1120.65 1176.95,1120.65L263.048,1120.65C261.416,1120.65 260.092,1119.33 260.092,1117.7L260.092,1105.91C260.092,1101.03 264.05,1097.07 268.932,1097.07L1169.32,1097.07ZM979.434,1052.84L979.434,657.806C979.434,656.174 980.758,654.851 982.39,654.851L1088.51,654.851C1090.14,654.851 1091.46,656.174 1091.46,657.806L1091.46,1052.84C1091.46,1054.47 1090.14,1055.8 1088.51,1055.8L982.39,1055.8C980.758,1055.8 979.434,1054.47 979.434,1052.84ZM820.236,1052.84L820.236,651.91C820.236,650.278 821.56,648.955 823.192,648.955L935.206,648.955C936.838,648.955 938.161,650.278 938.161,651.91L938.161,1052.84C938.161,1054.47 936.838,1055.8 935.206,1055.8L823.192,1055.8C821.56,1055.8 820.236,1054.47 820.236,1052.84ZM666.933,1052.84L666.933,657.806C666.933,656.174 668.257,654.851 669.889,654.851L776.008,654.851C777.64,654.851 778.962,656.174 778.962,657.806L778.962,1052.84C778.962,1054.47 777.64,1055.8 776.008,1055.8L669.889,1055.8C668.257,1055.8 666.933,1054.47 666.933,1052.84ZM513.63,1052.84L513.63,651.91C513.63,650.278 514.954,648.955 516.586,648.955L622.705,648.955C624.337,648.955 625.66,650.278 625.66,651.91L625.66,1052.84C625.66,1054.47 624.337,1055.8 622.705,1055.8L516.586,1055.8C514.954,1055.8 513.63,1054.47 513.63,1052.84ZM354.432,1052.84L354.432,657.806C354.432,656.174 355.756,654.851 357.388,654.851L469.402,654.851C471.034,654.851 472.357,656.174 472.357,657.806L472.357,1052.84C472.357,1054.47 471.034,1055.8 469.402,1055.8L357.388,1055.8C355.756,1055.8 354.432,1054.47 354.432,1052.84ZM267.181,607.68C263.265,607.68 260.092,604.507 260.092,600.592L260.092,587.051C260.092,585.419 261.416,584.096 263.048,584.096L1176.95,584.096C1178.59,584.096 1179.91,585.419 1179.91,587.051L1179.91,598.84C1179.91,603.723 1175.95,607.68 1171.07,607.68L267.181,607.68ZM1241.81,542.822L199.858,542.822C197.304,542.822 195.233,540.751 195.233,538.196L195.233,538.19C195.233,534.155 197.301,530.402 200.71,528.243L716.31,202.044C718.564,200.619 721.436,200.619 723.69,202.044L1242.78,530.454C1244.02,531.235 1244.77,532.595 1244.77,534.055L1244.77,539.867C1244.77,541.499 1243.44,542.822 1241.81,542.822ZM639.551,464.104C623.455,464.104 610.359,451.008 610.359,434.912C610.359,418.815 623.455,405.72 639.551,405.72C655.647,405.72 668.743,418.815 668.743,434.912C668.743,451.008 655.647,464.104 639.551,464.104ZM799.043,464.104C782.947,464.104 769.851,451.008 769.851,434.912C769.851,418.815 782.947,405.72 799.043,405.72C815.139,405.72 828.235,418.815 828.235,434.912C828.235,451.008 815.139,464.104 799.043,464.104ZM639.551,419.479C631.041,419.479 624.117,426.401 624.117,434.912C624.117,443.421 631.041,450.344 639.551,450.344C648.06,450.344 654.983,443.421 654.983,434.912C654.983,426.401 648.06,419.479 639.551,419.479ZM799.043,419.479C790.532,419.479 783.611,426.401 783.611,434.912C783.611,443.421 790.532,450.344 799.043,450.344C807.552,450.344 814.475,443.421 814.475,434.912C814.475,426.401 807.552,419.479 799.043,419.479Z" style="fill:#14509f;fill-rule:nonzero;"/>
    </g>
</svg>
