<svg viewBox="0 0 1254 1251" style="fill-rule:evenodd;clip-rule:evenodd;stroke-linejoin:round;stroke-miterlimit:2;">
    <g transform="matrix(1,0,0,1,-98.0875,-93.042)">
        <path id="path22" d="M787.694,1343.08C785.002,1343.08 782.313,1342.24 780.031,1340.57L724.939,1300.26L669.909,1339.67C665.327,1342.95 659.154,1342.91 654.627,1339.55C650.101,1336.19 648.257,1330.3 650.065,1324.96L670.845,1263.61L616.317,1226.43C611.613,1223.23 609.549,1217.33 611.227,1211.89C612.906,1206.45 617.933,1202.74 623.625,1202.74L691.677,1202.74L712.69,1138.52C714.437,1133.19 719.41,1129.58 725.021,1129.58C730.631,1129.58 735.606,1133.19 737.351,1138.52L758.37,1202.74L826.422,1202.74C832.118,1202.74 837.149,1206.45 838.823,1211.9C840.497,1217.35 838.423,1223.25 833.711,1226.45L779.163,1263.49L800.001,1326C801.787,1331.36 799.903,1337.26 795.341,1340.58C793.062,1342.25 790.379,1343.08 787.694,1343.08ZM725.021,1271.27C727.713,1271.27 730.403,1272.1 732.683,1273.77L762.517,1295.6L751.441,1262.38C749.603,1256.87 751.655,1250.81 756.459,1247.54L784.225,1228.69L748.965,1228.69C743.354,1228.69 738.381,1225.08 736.635,1219.75L725.022,1184.27L713.413,1219.75C711.667,1225.08 706.693,1228.69 701.082,1228.69L665.686,1228.69L693.602,1247.72C698.413,1251 700.45,1257.09 698.582,1262.6L687.574,1295.1L717.466,1273.69C719.726,1272.07 722.374,1271.27 725.021,1271.27ZM504.973,1210.84C508.541,1202.22 518.421,1198.12 527.047,1201.68C535.673,1205.27 539.766,1215.16 536.203,1223.78C532.617,1232.41 522.731,1236.49 514.11,1232.91C505.502,1229.35 501.401,1219.45 504.973,1210.84ZM920.134,1222.73C916.557,1214.11 920.655,1204.23 929.258,1200.65C937.897,1197.09 947.791,1201.18 951.369,1209.8C954.933,1218.44 950.826,1228.31 942.194,1231.89C933.591,1235.45 923.689,1231.35 920.134,1222.73ZM829.999,1188.93C826.404,1180.33 830.497,1170.42 839.145,1166.85C847.749,1163.29 857.656,1167.38 861.225,1175.98C864.797,1184.61 860.691,1194.5 852.06,1198.08C843.461,1201.64 833.553,1197.55 829.999,1188.93ZM414.335,1181.75C410.969,1181.75 407.651,1180.44 405.157,1177.95L357.036,1129.83L296.765,1160.37C291.763,1162.91 285.695,1161.94 281.727,1157.97C277.76,1154.01 276.792,1147.94 279.328,1142.93L309.867,1082.66L261.745,1034.54C257.765,1030.56 256.805,1024.47 259.369,1019.46C261.932,1014.45 267.444,1011.65 272.989,1012.56L339.94,1023.38L370.456,963.186C372.996,958.177 378.476,955.365 384.023,956.233C389.573,957.098 393.937,961.435 394.835,966.981L405.683,1034.01L472.732,1044.85C478.277,1045.75 482.615,1050.11 483.479,1055.67C484.343,1061.22 481.537,1066.69 476.527,1069.23L416.308,1099.77L427.139,1166.7C428.037,1172.26 425.251,1177.76 420.24,1180.33C418.368,1181.28 416.343,1181.75 414.335,1181.75ZM1035.74,1181.74C1033.73,1181.74 1031.7,1181.28 1029.83,1180.32C1024.82,1177.75 1022.03,1172.25 1022.93,1166.7L1033.75,1099.75L973.556,1069.23C968.546,1066.69 965.739,1061.22 966.603,1055.67C967.467,1050.12 971.806,1045.75 977.351,1044.86L1044.37,1034.01L1055.23,966.952C1056.13,961.407 1060.49,957.069 1066.04,956.205C1071.6,955.337 1077.07,958.149 1079.61,963.159L1110.14,1023.38L1177.07,1012.55C1182.62,1011.65 1188.13,1014.44 1190.69,1019.45C1193.26,1024.46 1192.3,1030.55 1188.32,1034.53L1140.2,1082.65L1170.31,1142.05C1171.51,1144.02 1172.19,1146.32 1172.19,1148.78C1172.19,1155.92 1166.43,1161.71 1159.3,1161.76C1157.27,1161.74 1155.21,1161.32 1153.32,1160.36L1093.04,1129.82L1044.91,1177.94C1042.42,1180.43 1039.1,1181.74 1035.74,1181.74ZM906.128,1164.83C901.037,1164.83 896.206,1161.81 894.137,1156.82L816.505,969.427C813.764,962.807 816.906,955.217 823.526,952.476C830.146,949.735 837.737,952.876 840.478,959.496L918.108,1146.88C920.852,1153.5 917.709,1161.09 911.089,1163.84C909.465,1164.51 907.782,1164.83 906.128,1164.83ZM543.936,1164.83C542.281,1164.83 540.6,1164.51 538.976,1163.84C532.356,1161.1 529.213,1153.51 531.955,1146.88L609.564,959.497C612.305,952.876 619.896,949.735 626.516,952.475C633.135,955.216 636.279,962.805 633.537,969.427L555.928,1156.81C553.859,1161.81 549.028,1164.83 543.936,1164.83ZM465.144,1123.21C468.689,1114.58 478.588,1110.47 487.219,1114.06C495.831,1117.64 499.937,1127.52 496.369,1136.13C492.807,1144.75 482.904,1148.85 474.277,1145.28C465.661,1141.71 461.557,1131.81 465.144,1123.21ZM359.556,1101.03C362.921,1101.03 366.243,1102.34 368.733,1104.83L395.111,1131.21L389.18,1094.56C388.279,1088.98 391.084,1083.46 396.12,1080.91L429.261,1064.11L392.299,1058.12C386.781,1057.23 382.456,1052.91 381.564,1047.39L375.585,1010.45L358.797,1043.57C356.244,1048.6 350.72,1051.41 345.155,1050.51L308.481,1044.58L334.864,1070.96C338.832,1074.93 339.799,1080.99 337.264,1086L320.385,1119.31L353.696,1102.43C355.556,1101.49 357.564,1101.03 359.556,1101.03ZM1020.82,1064.11L1053.94,1080.9C1058.97,1083.45 1061.78,1088.97 1060.88,1094.54L1054.95,1131.2L1081.34,1104.82C1085.3,1100.85 1091.37,1099.89 1096.37,1102.42L1129.68,1119.3L1112.8,1086C1110.27,1080.99 1111.24,1074.92 1115.2,1070.96L1141.58,1044.58L1104.93,1050.51C1099.36,1051.41 1093.84,1048.6 1091.29,1043.57L1074.48,1010.41L1068.49,1047.4C1067.59,1052.91 1063.27,1057.24 1057.75,1058.13L1020.82,1064.11ZM725.021,1127.28C717.855,1127.28 712.047,1121.47 712.047,1114.31L712.047,866.444C712.047,859.279 717.855,853.471 725.021,853.471C732.186,853.471 737.994,859.279 737.994,866.444L737.994,1114.31C737.994,1121.47 732.186,1127.28 725.021,1127.28ZM648.384,1067.42C651.947,1058.8 661.828,1054.71 670.453,1058.29C679.08,1061.86 683.173,1071.74 679.608,1080.38C676.024,1089.01 666.143,1093.09 657.517,1089.52C648.892,1085.95 644.799,1076.06 648.384,1067.42ZM773.661,1042.46C770.084,1033.85 774.187,1023.96 782.803,1020.39C791.433,1016.82 801.323,1020.92 804.887,1029.53C808.472,1038.15 804.353,1048.05 795.731,1051.6C787.124,1055.18 777.225,1051.07 773.661,1042.46ZM920.125,1019.92C916.557,1011.3 920.646,1001.41 929.28,997.851C937.908,994.279 947.792,998.373 951.369,1006.99C954.941,1015.63 950.833,1025.51 942.194,1029.08C933.586,1032.66 923.689,1028.56 920.125,1019.92ZM1003.87,1006.48C1000.55,1006.48 997.235,1005.22 994.7,1002.68L819.426,827.407C814.358,822.342 814.358,814.126 819.426,809.06C824.492,803.992 832.707,803.992 837.774,809.06L1013.05,984.335C1018.12,989.402 1018.12,997.616 1013.05,1002.68C1010.51,1005.22 1007.19,1006.48 1003.87,1006.48ZM446.195,1006.48C442.875,1006.48 439.555,1005.21 437.021,1002.68C431.953,997.611 431.953,989.397 437.021,984.331L612.292,809.061C617.357,803.994 625.573,803.994 630.639,809.061C635.707,814.126 635.707,822.341 630.639,827.407L455.368,1002.68C452.836,1005.21 449.516,1006.48 446.195,1006.48ZM656.34,979.802C659.913,971.177 669.793,967.083 678.423,970.655C687.049,974.219 691.144,984.122 687.575,992.734C683.988,1001.37 674.108,1005.46 665.483,1001.88C656.856,998.313 652.763,988.41 656.34,979.802ZM528.872,979.802C532.434,971.181 542.329,967.083 550.941,970.655C559.572,974.227 563.665,984.122 560.097,992.734C556.533,1001.37 546.63,1005.46 538.018,1001.87C529.401,998.313 525.294,988.41 528.872,979.802ZM1134.47,977.402C1125.84,973.872 1121.73,963.973 1125.33,955.333C1128.89,946.73 1138.78,942.614 1147.4,946.186C1156.03,949.75 1160.12,959.653 1156.53,968.278C1152.97,976.886 1143.09,980.989 1134.47,977.402ZM863.797,952.331C860.229,943.704 864.322,933.829 872.944,930.252C881.565,926.671 891.453,930.783 895.03,939.391C898.594,948.028 894.496,957.905 885.866,961.477C877.254,965.06 867.352,960.944 863.797,952.331ZM219.816,908.866C228.437,905.289 238.326,909.383 241.898,918.005C245.477,926.634 241.373,936.523 232.748,940.101C224.121,943.67 214.241,939.561 210.674,930.941C207.101,922.325 211.204,912.426 219.816,908.866ZM422.631,908.862C431.256,905.289 441.135,909.378 444.7,918.007C448.281,926.634 444.184,936.518 435.557,940.097C426.919,943.666 417.043,939.575 413.479,930.945C409.903,922.325 413.995,912.435 422.631,908.862ZM1222.1,937.574C1213.48,934.01 1209.38,924.126 1212.94,915.513C1216.53,906.88 1226.42,902.781 1235.05,906.349C1243.68,909.936 1247.74,919.824 1244.17,928.45C1240.61,937.053 1230.71,941.152 1222.1,937.574ZM647.429,914.996C645.774,914.996 644.096,914.679 642.472,914.008C635.852,911.268 632.706,903.68 635.446,897.059L652.676,855.427C655.414,848.807 663.001,845.663 669.624,848.403C676.245,851.141 679.392,858.729 676.65,865.352L659.421,906.981C657.353,911.979 652.521,914.996 647.429,914.996ZM802.655,914.992C797.567,914.992 792.739,911.98 790.667,906.988L773.395,865.361C770.65,858.743 773.79,851.152 780.406,848.405C787.023,845.659 794.615,848.799 797.362,855.416L814.634,897.043C817.379,903.661 814.239,911.252 807.623,914C805.996,914.675 804.311,914.992 802.655,914.992ZM991.066,913.675C982.438,910.116 978.352,900.223 981.914,891.609C985.494,882.984 995.385,878.887 1003.98,882.46C1012.62,886.019 1016.71,895.925 1013.15,904.537C1009.58,913.149 999.673,917.248 991.066,913.675ZM287.846,908.727C282.754,908.727 277.924,905.711 275.855,900.715C273.112,894.095 276.255,886.505 282.875,883.763L470.252,806.14C476.871,803.393 484.462,806.539 487.203,813.159C489.946,819.779 486.803,827.368 480.183,830.111L292.806,907.735C291.182,908.408 289.5,908.727 287.846,908.727ZM1162.22,908.721C1160.57,908.721 1158.88,908.404 1157.26,907.731L969.863,830.121C963.244,827.379 960.099,819.791 962.841,813.169C965.583,806.551 973.175,803.408 979.793,806.147L1167.19,883.757C1173.81,886.499 1176.95,894.088 1174.21,900.708C1172.14,905.704 1167.31,908.721 1162.22,908.721ZM490.221,852.538C498.846,848.96 508.726,853.055 512.303,861.671C515.89,870.3 511.774,880.195 503.162,883.759C494.522,887.332 484.642,883.232 481.078,874.612C477.501,865.991 481.603,856.087 490.221,852.538ZM253.622,818.737C262.235,815.156 272.136,819.238 275.702,827.878C279.268,836.5 275.176,846.389 266.567,849.957C257.947,853.534 248.039,849.428 244.475,840.81C240.912,832.189 245,822.296 253.622,818.737ZM184.219,829.046C182.89,829.046 181.546,828.839 180.233,828.415C174.877,826.686 171.247,821.698 171.247,816.07L171.247,748.011L107.025,726.989C101.693,725.243 98.087,720.269 98.087,714.658C98.087,709.049 101.694,704.073 107.026,702.329L171.247,681.314L171.247,613.254C171.247,607.626 174.877,602.638 180.233,600.909C185.586,599.175 191.449,601.097 194.742,605.662L234.425,660.659L298.571,639.67C303.91,637.922 309.766,639.81 313.081,644.346C316.395,648.881 316.414,655.034 313.129,659.59L273.41,714.658L313.154,769.745C316.441,774.301 316.423,780.454 313.109,784.99C309.794,789.526 303.937,791.415 298.599,789.666L234.417,768.67L194.743,823.662C192.257,827.106 188.309,829.046 184.219,829.046ZM1265.82,829.03C1261.73,829.03 1257.79,827.093 1255.3,823.647L1215.62,768.662L1151.49,789.639C1146.15,791.387 1140.29,789.498 1136.98,784.962C1133.66,780.427 1133.64,774.273 1136.93,769.717L1176.65,714.662L1136.91,659.563C1133.62,655.007 1133.64,648.854 1136.96,644.319C1140.27,639.783 1146.13,637.897 1151.47,639.642L1215.64,660.643L1255.3,605.659C1258.59,601.095 1264.45,599.171 1269.81,600.903C1275.17,602.634 1278.8,607.619 1278.8,613.249L1278.8,681.301L1343.01,702.306C1348.35,704.049 1351.95,709.023 1351.95,714.634C1351.95,720.243 1348.35,725.218 1343.02,726.966L1278.8,748.005L1278.8,816.055C1278.8,821.683 1275.17,826.67 1269.81,828.401C1268.5,828.826 1267.15,829.03 1265.82,829.03ZM537.675,805.247C532.584,805.247 527.753,802.231 525.683,797.235C522.941,790.615 526.085,783.026 532.704,780.283L574.34,763.037C580.957,760.291 588.548,763.438 591.292,770.057C594.033,776.677 590.891,784.267 584.271,787.007L542.636,804.257C541.011,804.93 539.329,805.247 537.675,805.247ZM912.391,805.233C910.737,805.233 909.059,804.917 907.436,804.245L865.784,787.016C859.163,784.277 856.016,776.69 858.753,770.069C861.492,763.446 869.085,760.3 875.701,763.038L917.355,780.268C923.975,783.006 927.123,790.594 924.384,797.214C922.316,802.214 917.484,805.233 912.391,805.233ZM1078.7,794.172C1070.07,790.599 1065.97,780.723 1069.56,772.101C1073.13,763.472 1083.01,759.377 1091.64,762.941C1100.27,766.528 1104.36,776.409 1100.77,785.039C1097.2,793.669 1087.32,797.767 1078.7,794.172ZM400.085,762.404C408.703,758.817 418.592,762.92 422.168,771.545C425.732,780.166 421.639,790.06 413.027,793.628C404.396,797.201 394.507,793.098 390.944,784.478C387.371,775.861 391.473,765.958 400.085,762.404ZM991.066,786.211C982.438,782.634 978.352,772.754 981.922,764.132C985.478,755.503 995.385,751.415 1004,754.976C1012.62,758.564 1016.72,768.443 1013.15,777.074C1009.58,785.699 999.673,789.794 991.066,786.211ZM152.771,714.662L188.257,726.278C193.589,728.023 197.195,732.998 197.195,738.607L197.195,775.913L218.919,745.801C222.223,741.222 228.107,739.305 233.475,741.061L268.801,752.617L246.89,722.25C243.622,717.718 243.621,711.602 246.889,707.07L268.781,676.718L233.486,688.267C228.118,690.022 222.234,688.107 218.93,683.527L197.195,653.407L197.195,690.719C197.195,696.33 193.589,701.306 188.255,703.051L152.771,714.662ZM1220.59,740.41C1224.68,740.41 1228.62,742.347 1231.11,745.793L1252.85,775.909L1252.85,738.603C1252.85,732.994 1256.45,728.019 1261.78,726.273L1297.28,714.646L1261.79,703.039C1256.45,701.295 1252.85,696.321 1252.85,690.709L1252.85,653.413L1231.13,683.513C1227.83,688.093 1221.95,690.011 1216.58,688.253L1181.26,676.695L1203.17,707.074C1206.45,711.606 1206.45,717.723 1203.17,722.255L1181.29,752.593L1216.56,741.054C1217.89,740.619 1219.25,740.41 1220.59,740.41ZM578.557,732.953L330.689,732.953C323.524,732.953 317.716,727.145 317.716,719.98C317.716,712.814 323.524,707.006 330.689,707.006L578.557,707.006C585.723,707.006 591.531,712.814 591.531,719.98C591.531,727.145 585.723,732.953 578.557,732.953ZM1119.35,732.953L871.493,732.953C864.327,732.953 858.519,727.145 858.519,719.98C858.519,712.814 864.327,707.006 871.493,707.006L1119.35,707.006C1126.52,707.006 1132.33,712.814 1132.33,719.98C1132.33,727.145 1126.52,732.953 1119.35,732.953ZM462.749,645.077C471.375,648.653 475.463,658.53 471.899,667.154C468.337,675.782 458.434,679.882 449.817,676.307C441.195,672.73 437.098,662.841 440.674,654.229C444.239,645.598 454.141,641.501 462.749,645.077ZM1053.72,668.89C1045.12,672.467 1035.22,668.355 1031.65,659.753C1028.09,651.118 1032.18,641.229 1040.78,637.669C1049.41,634.083 1059.31,638.199 1062.88,646.818C1066.44,655.423 1062.33,665.327 1053.72,668.89ZM375.122,637.113C383.749,640.678 387.842,650.565 384.264,659.186C380.688,667.817 370.808,671.91 362.185,668.342C353.556,664.765 349.462,654.881 353.04,646.259C356.602,637.634 366.496,633.533 375.122,637.113ZM870.757,667.288C865.667,667.288 860.838,664.274 858.767,659.28C856.022,652.661 859.165,645.07 865.783,642.325L907.427,625.06C914.043,622.317 921.635,625.456 924.381,632.076C927.125,638.694 923.983,646.285 917.365,649.029L875.721,666.296C874.097,666.969 872.413,667.288 870.757,667.288ZM579.3,667.278C577.645,667.278 575.963,666.959 574.339,666.287L532.704,649.039C526.084,646.298 522.941,638.707 525.683,632.087C528.427,625.469 536.017,622.322 542.635,625.067L584.271,642.314C590.889,645.057 594.033,652.646 591.292,659.266C589.221,664.262 584.391,667.278 579.3,667.278ZM974.833,624.176C969.743,624.176 964.912,621.16 962.843,616.165C960.099,609.545 963.243,601.956 969.861,599.213L1157.26,521.574C1163.88,518.832 1171.47,521.974 1174.21,528.594C1176.95,535.214 1173.81,542.804 1167.19,545.546L979.793,623.184C978.169,623.858 976.488,624.176 974.833,624.176ZM475.213,624.152C473.558,624.152 471.877,623.835 470.253,623.162L282.876,545.56C276.257,542.819 273.113,535.231 275.853,528.61C278.596,521.99 286.185,518.846 292.805,521.587L480.182,599.188C486.802,601.93 489.946,609.519 487.205,616.14C485.136,621.136 480.304,624.152 475.213,624.152ZM828.6,624.072C825.279,624.072 821.96,622.806 819.426,620.272C814.358,615.206 814.358,606.991 819.426,601.924L994.7,426.654C999.767,421.588 1007.98,421.586 1013.05,426.654C1018.12,431.72 1018.12,439.936 1013.05,445.002L837.774,620.272C835.24,622.806 831.919,624.072 828.6,624.072ZM621.465,624.072C618.145,624.072 614.824,622.806 612.292,620.272L437.021,445.007C431.953,439.94 431.953,431.726 437.021,426.659C442.087,421.592 450.303,421.592 455.368,426.659L630.639,601.924C635.707,606.99 635.707,615.206 630.639,620.272C628.105,622.806 624.785,624.072 621.465,624.072ZM1200.19,612.546C1191.59,616.152 1181.68,612.056 1178.12,603.404C1174.55,594.798 1178.63,584.895 1187.25,581.327C1195.88,577.754 1205.77,581.859 1209.33,590.496C1212.91,599.095 1208.81,608.994 1200.19,612.546ZM725.021,586.481C717.855,586.481 712.047,580.673 712.047,573.507L712.047,325.641C712.047,318.475 717.855,312.666 725.021,312.666C732.186,312.666 737.994,318.475 737.994,325.641L737.994,573.507C737.994,580.673 732.186,586.481 725.021,586.481ZM785.397,581.925C783.745,581.925 782.067,581.607 780.444,580.938C773.823,578.199 770.675,570.611 773.413,563.99L790.643,522.327C793.381,515.705 800.971,512.561 807.589,515.295C814.211,518.034 817.359,525.622 814.621,532.243L797.392,573.906C795.324,578.905 790.491,581.925 785.397,581.925ZM664.668,581.911C659.576,581.911 654.745,578.895 652.676,573.897L635.437,532.268C632.696,525.647 635.84,518.059 642.46,515.317C649.079,512.575 656.669,515.719 659.411,522.34L676.649,563.969C679.391,570.591 676.248,578.179 669.627,580.92C668.004,581.593 666.321,581.911 664.668,581.911ZM963.585,578.755C954.963,582.314 945.093,578.226 941.519,569.605C937.93,560.987 942.041,551.098 950.649,547.521C959.287,543.958 969.167,548.049 972.741,556.686C976.327,565.307 972.211,575.202 963.585,578.755ZM462.749,517.609C471.375,521.172 475.463,531.065 471.899,539.687C468.323,548.313 458.434,552.412 449.817,548.844C441.195,545.265 437.098,535.375 440.674,526.755C444.239,518.129 454.141,514.035 462.749,517.609ZM231.711,493.712C240.342,497.278 244.43,507.162 240.867,515.784C237.294,524.414 227.4,528.508 218.774,524.94C210.15,521.362 206.064,511.478 209.642,502.854C213.206,494.229 223.099,490.133 231.711,493.712ZM1031.19,522.422C1022.56,525.995 1012.68,521.913 1009.13,513.266C1005.54,504.645 1009.63,494.761 1018.25,491.187C1026.89,487.611 1036.76,491.715 1040.34,500.357C1043.92,508.978 1039.82,518.859 1031.19,522.422ZM1233.99,522.418C1225.37,525.999 1215.48,521.901 1211.92,513.294C1208.34,504.654 1212.44,494.761 1221.06,491.187C1229.69,487.619 1239.57,491.735 1243.14,500.357C1246.7,508.961 1242.6,518.859 1233.99,522.418ZM590.023,478.962C593.596,487.584 589.501,497.468 580.876,501.041C572.251,504.614 562.361,500.516 558.793,491.9C555.22,483.268 559.323,473.384 567.94,469.816C576.561,466.238 586.455,470.336 590.023,478.962ZM319.351,453.877C327.972,457.442 332.079,467.325 328.492,475.956C324.924,484.577 315.036,488.68 306.424,485.102C297.798,481.534 293.704,471.636 297.268,463.018C300.844,454.393 310.735,450.294 319.351,453.877ZM828.495,477.848C826.84,477.848 825.159,477.531 823.535,476.858C816.916,474.115 813.772,466.526 816.513,459.907L894.136,272.5C896.879,265.88 904.469,262.738 911.087,265.479C917.708,268.22 920.852,275.81 918.109,282.43L840.487,469.836C838.417,474.831 833.585,477.848 828.495,477.848ZM621.556,477.816C616.465,477.816 611.635,474.801 609.564,469.804L531.955,282.438C529.213,275.818 532.356,268.23 538.976,265.486C545.592,262.744 553.185,265.889 555.928,272.509L633.537,459.874C636.279,466.494 633.136,474.084 626.516,476.825C624.893,477.498 623.211,477.816 621.556,477.816ZM476.507,360.087L416.309,329.569L427.138,262.634C428.037,257.077 425.251,251.574 420.241,249.011C415.23,246.45 409.137,247.407 405.158,251.387L357.035,299.513L296.767,268.962C291.761,266.425 285.694,267.393 281.727,271.361C277.761,275.326 276.791,281.394 279.327,286.398L309.866,346.669L261.745,394.79C257.766,398.77 256.806,404.862 259.37,409.873C261.933,414.883 267.441,417.67 272.991,416.771L339.93,405.947L370.457,466.162C372.69,470.569 377.193,473.27 382.022,473.27C382.686,473.27 383.354,473.221 384.022,473.115C389.573,472.251 393.937,467.913 394.835,462.367L405.683,395.317L472.714,384.466C478.259,383.569 482.597,379.203 483.461,373.654C484.325,368.102 481.517,362.627 476.507,360.087ZM1068.04,473.236C1067.38,473.236 1066.71,473.185 1066.04,473.081C1060.49,472.217 1056.12,467.878 1055.22,462.333L1044.38,395.312L977.318,384.45C971.772,383.552 967.434,379.188 966.572,373.637C965.708,368.086 968.517,362.61 973.528,360.07L1033.74,329.549L1022.92,262.618C1022.02,257.062 1024.81,251.561 1029.82,248.997C1034.83,246.432 1040.92,247.394 1044.9,251.373L1093.02,299.493L1153.27,268.941C1158.27,266.404 1164.35,267.37 1168.31,271.336C1172.28,275.301 1173.25,281.368 1170.72,286.373L1140.19,346.664L1188.3,394.782C1192.28,398.761 1193.24,404.854 1190.67,409.865C1188.11,414.874 1182.62,417.666 1177.05,416.762L1110.12,405.945L1079.6,466.128C1077.37,470.534 1072.87,473.236 1068.04,473.236ZM924.948,451.493C921.383,460.105 911.476,464.201 902.877,460.637C894.248,457.05 890.141,447.166 893.721,438.567C897.285,429.929 907.185,425.839 915.813,429.411C924.417,432.977 928.511,442.881 924.948,451.493ZM797.47,451.486C793.879,460.112 784.026,464.196 775.398,460.627C766.765,457.07 762.675,447.167 766.23,438.548C769.818,429.924 779.697,425.832 788.337,429.412C796.963,432.978 801.055,442.88 797.47,451.486ZM533.684,411.363C537.263,419.985 533.168,429.869 524.543,433.439C515.918,437.014 506.028,432.917 502.46,424.298C498.882,415.669 502.99,405.785 511.602,402.217C520.228,398.637 530.122,402.737 533.684,411.363ZM392.298,371.198C386.781,372.09 382.457,376.415 381.563,381.933L375.585,418.891L358.789,385.759C356.554,381.351 352.047,378.65 347.221,378.65C346.534,378.65 345.841,378.705 345.146,378.818L308.485,384.747L334.863,358.367C338.831,354.401 339.798,348.334 337.263,343.329L320.389,310.027L353.694,326.91C358.701,329.447 364.769,328.478 368.734,324.511L395.109,298.134L389.181,334.782C388.278,340.357 391.085,345.873 396.121,348.426L429.242,365.218L392.298,371.198ZM1020.79,365.205L1057.77,371.193C1063.28,372.086 1067.61,376.412 1068.5,381.928L1074.48,418.864L1091.26,385.758C1093.82,380.722 1099.32,377.905 1104.91,378.818L1141.57,384.742L1115.19,358.362C1111.23,354.397 1110.26,348.332 1112.79,343.328L1129.66,310.006L1096.37,326.89C1091.36,329.428 1085.29,328.46 1081.33,324.493L1054.95,298.112L1060.87,334.765C1061.77,340.338 1058.97,345.856 1053.93,348.408L1020.79,365.205ZM680.153,388.829C683.73,397.448 679.637,407.337 671.012,410.907C662.385,414.483 652.49,410.381 648.928,401.764C645.35,393.135 649.452,383.252 658.074,379.681C666.696,376.103 676.589,380.203 680.153,388.829ZM805.434,363.86C801.871,372.485 791.987,376.583 783.366,372.983C774.726,369.42 770.631,359.54 774.21,350.923C777.782,342.276 787.671,338.201 796.3,341.781C804.923,345.347 809.02,355.225 805.434,363.86ZM988.66,308.079C985.129,316.718 975.232,320.827 966.591,317.221C957.983,313.657 953.885,303.773 957.445,295.155C961.019,286.534 970.915,282.439 979.545,286.025C988.139,289.582 992.26,299.47 988.66,308.079ZM787.694,306.545C785.002,306.545 782.311,305.71 780.03,304.041L724.939,263.717L669.91,303.141C665.329,306.421 659.154,306.369 654.627,303.017C650.101,299.661 648.257,293.767 650.065,288.431L670.845,227.075L616.315,189.891C611.613,186.685 609.549,180.787 611.227,175.349C612.906,169.909 617.934,166.198 623.625,166.198L691.677,166.198L712.69,101.981C714.437,96.649 719.41,93.042 725.021,93.042C730.631,93.042 735.606,96.647 737.351,101.979L758.37,166.198L826.422,166.198C832.118,166.198 837.149,169.915 838.823,175.361C840.497,180.805 838.423,186.705 833.711,189.905L779.163,226.953L800.001,289.469C801.787,294.826 799.902,300.723 795.339,304.053C793.062,305.714 790.378,306.545 787.694,306.545ZM623.82,242.363C627.394,250.985 623.303,260.867 614.679,264.441C606.052,268.015 596.158,263.917 592.595,255.295C589.018,246.669 593.124,236.782 601.736,233.213C610.367,229.638 620.256,233.737 623.82,242.363ZM725.021,234.723C727.714,234.723 730.403,235.558 732.685,237.229L762.515,259.063L751.441,225.842C749.603,220.33 751.655,214.27 756.459,211.006L784.227,192.146L748.965,192.146C743.354,192.146 738.381,188.541 736.635,183.209L725.022,147.727L713.413,183.207C711.667,188.539 706.693,192.146 701.082,192.146L665.681,192.146L693.603,211.187C698.413,214.467 700.45,220.551 698.582,226.067L687.575,258.563L717.465,237.15C719.725,235.531 722.374,234.723 725.021,234.723ZM533.684,208.562C537.263,217.183 533.168,227.067 524.543,230.637C515.918,234.213 506.028,230.115 502.46,221.494C498.882,212.867 502.99,202.983 511.602,199.413C520.228,195.838 530.122,199.937 533.684,208.562ZM948.846,220.447C945.273,229.074 935.378,233.17 926.785,229.611C918.148,226.031 914.042,216.129 917.616,207.511C921.193,198.877 931.086,194.809 939.712,198.378C948.312,201.942 952.41,211.839 948.846,220.447Z" style="fill:rgb(241,180,52);fill-rule:nonzero;"/>
        <g id="path310" transform="matrix(1.33333,0,0,-1.33333,734.404,793.279)">
            <path d="M0,0L-1.326,-16.505L-25.834,-14.536L-24.468,2.47C-49.551,9.854 -58.798,30.568 -57.58,45.743L-30.399,43.561C-30.399,43.561 -29.679,25.374 -7.168,23.565C5.004,22.588 9.922,27.396 10.311,32.235C10.886,39.402 1.584,42.667 -8.721,46.014C-25.41,51.382 -54.745,60.113 -52.723,85.292C-51.316,102.799 -35.71,115.309 -15.227,117.525L-13.794,135.363L10.714,133.395L9.241,115.055C29.864,108.533 39.697,90.957 38.506,76.118L11.325,78.301C11.781,83.972 5.727,92.176 -5.947,93.114C-14.117,93.77 -24.416,90.907 -24.938,84.403C-25.38,78.901 -18.051,76.132 -2.379,70.675C15.089,64.573 39.786,56.548 37.777,31.538C36.277,12.863 21.087,1.329 0,0" style="fill:rgb(150,205,195);fill-rule:nonzero;"/>
        </g>
    </g>
</svg>
