<svg viewBox="0 0 1094 1094" style="fill-rule:evenodd;clip-rule:evenodd;stroke-linejoin:round;stroke-miterlimit:2;">
    <g transform="matrix(1,0,0,1,-173.096,-173.095)">
        <path d="M1266.9,720C1266.9,417.954 1022.05,173.095 720,173.095C417.953,173.095 173.096,417.954 173.096,720C173.096,1022.05 417.953,1266.9 720,1266.9C1022.05,1266.9 1266.9,1022.05 1266.9,720ZM1212.24,720C1212.24,991.856 991.856,1212.24 720,1212.24C448.145,1212.24 227.762,991.856 227.762,720C227.762,448.145 448.145,227.761 720,227.761C991.856,227.761 1212.24,448.145 1212.24,720ZM861.473,798.509C854.586,791.126 844.842,786.894 834.741,786.894C827.329,786.894 820.185,789.11 814.07,793.31L772.763,819.865C764.446,816.373 736.387,800.749 673.541,733.386C610.326,665.63 596.914,636.828 594.113,628.46L623.498,589.045C634.655,574.986 633.85,554.532 621.594,541.397L557.179,472.356C549.921,464.574 540.065,460.288 529.43,460.288C517.946,460.288 507.207,465.397 499.966,474.302L482.017,496.374C465.893,515.38 457.821,538.928 458.025,566.365C458.203,590.481 464.822,617.749 477.695,647.41C499.341,697.285 539.611,755.14 591.089,810.314C618.149,839.318 660.687,880.76 709.671,913.474C757.029,945.104 799.318,961.142 835.359,961.142C858.789,961.142 879.466,954.297 896.819,940.8L919.981,924.493C928.958,918.173 934.757,908.285 935.89,897.366C937.022,886.445 933.377,875.58 925.887,867.55L861.473,798.509ZM814.117,651.471C822.825,669.463 827.235,688.639 827.22,708.466C827.212,719.207 835.913,727.922 846.653,727.929L846.668,727.929C857.403,727.929 866.109,719.23 866.117,708.494C866.136,682.739 860.42,657.853 849.129,634.525C835.136,605.613 813.389,581.389 786.243,564.475C759.853,548.034 729.493,539.127 698.448,538.719C687.708,538.627 678.887,547.171 678.745,557.91C678.604,568.651 687.197,577.471 697.936,577.613C747.867,578.27 792.385,606.57 814.117,651.471ZM927.007,596.831C905.791,552.997 872.796,516.327 831.589,490.78C791.509,465.933 745.439,452.587 698.36,452.181C698.303,452.18 698.245,452.18 698.189,452.18C687.525,452.18 678.836,460.777 678.744,471.461C678.652,482.203 687.284,490.984 698.025,491.076C781.384,491.793 855.709,538.809 891.995,613.777C906.46,643.66 913.781,675.517 913.756,708.467C913.751,719.207 922.451,727.921 933.192,727.928L933.205,727.928C943.94,727.928 952.647,719.231 952.653,708.495C952.683,669.619 944.053,632.049 927.007,596.831Z" style="fill:white;"/>
    </g>
</svg>
