<svg viewBox="0 0 646 809" xmlns="http://www.w3.org/2000/svg" style="fill-rule:evenodd;clip-rule:evenodd;stroke-linejoin:round;stroke-miterlimit:2;">
    <g transform="matrix(1,0,0,1,-0.01,-2.84217e-14)">
        <path d="M252.643,413.56C246.837,413.556 242.06,408.777 242.06,402.97C242.06,397.16 246.84,392.38 252.65,392.38L387.65,392.31C393.46,392.31 398.24,397.09 398.24,402.9C398.24,408.71 393.46,413.49 387.65,413.49L252.643,413.56L252.65,413.56L252.6,413.56L252.643,413.56ZM532.73,324.83C525.161,319.731 516.583,316.32 507.58,314.83L445.67,304.16L396.38,268.41L395.38,267.77C375.719,256.626 353.5,250.768 330.9,250.77L280.52,250.77C261.253,250.812 242.229,255.079 224.79,263.27L139.45,306.91L114.01,305.6C105.987,305.303 98.777,310.677 96.77,318.45L84.32,367.14L84.21,367.6C81.031,382.929 90.335,398.305 105.39,402.6L115.62,406.09C116.717,406.462 117.867,406.652 119.025,406.652C124.836,406.652 129.617,401.871 129.617,396.06C129.617,391.534 126.716,387.485 122.43,386.03L111.92,382.47L111.29,382.27C106.857,381.068 104.06,376.604 104.91,372.09L116.46,326.91L144.01,328.29L234.01,282.24C248.545,275.454 264.389,271.925 280.43,271.9L299.34,271.9L299.34,315.71L212.3,315.71C212.203,315.707 212.106,315.705 212.009,315.705C207.357,315.705 203.529,319.533 203.529,324.185C203.529,328.837 207.357,332.665 212.009,332.665C212.106,332.665 212.203,332.663 212.3,332.66L388.59,332.66C388.687,332.663 388.784,332.665 388.881,332.665C393.533,332.665 397.361,328.837 397.361,324.185C397.361,319.533 393.533,315.705 388.881,315.705C388.784,315.705 388.687,315.707 388.59,315.71L316.38,315.71L316.38,271.9L330.91,271.9C349.653,271.911 368.083,276.732 384.43,285.9L437.22,324.19L504.07,335.71C510.219,336.739 516.071,339.094 521.22,342.61C532.841,350.45 539.817,363.592 539.8,377.61L539.8,390.99C539.8,391.687 539.227,392.26 538.53,392.26L522.23,392.26C516.42,392.26 511.64,397.04 511.64,402.85C511.64,408.66 516.42,413.44 522.23,413.44L538.54,413.44C550.867,413.44 561.01,403.297 561.01,390.97L561.01,377.58C560.988,356.397 550.36,336.573 532.73,324.83Z" style="fill:rgb(195, 0, 47);fill-rule:nonzero;"/>
        <path d="M646.01,323C646.01,144.89 501.11,0 323.01,0C144.91,0 0.01,144.89 0.01,323C0.01,501.11 144.91,646 323.01,646C352.262,645.994 381.377,642.001 409.55,634.13L485.7,795.42C489.369,803.189 497.224,808.166 505.815,808.166C518.019,808.166 528.061,798.124 528.061,785.92C528.061,782.635 527.333,779.39 525.93,776.42L451.69,619.19C565.93,569.37 646.01,455.39 646.01,323ZM323.01,601.52C169.44,601.52 44.49,476.58 44.49,323C44.49,169.42 169.44,44.49 323.01,44.49C476.58,44.49 601.53,169.43 601.53,323C601.53,476.57 476.58,601.52 323.01,601.52ZM185.5,444.96C158.384,444.96 136.07,422.646 136.07,395.53C136.07,368.414 158.384,346.1 185.5,346.1C212.616,346.1 234.93,368.414 234.93,395.53C234.93,395.533 234.93,395.537 234.93,395.54C234.897,422.642 212.602,444.933 185.5,444.96ZM455.55,444.96C428.445,444.944 406.15,422.635 406.15,395.53C406.15,368.414 428.464,346.1 455.58,346.1C482.696,346.1 505.01,368.414 505.01,395.53C505.01,395.533 505.01,395.537 505.01,395.54C504.977,422.654 482.664,444.949 455.55,444.96ZM185.5,369.41C171.166,369.41 159.37,381.206 159.37,395.54C159.37,409.874 171.166,421.67 185.5,421.67C199.834,421.67 211.63,409.874 211.63,395.54C211.614,381.212 199.828,369.426 185.5,369.41ZM455.55,369.41C455.547,369.41 455.543,369.41 455.54,369.41C441.206,369.41 429.41,381.206 429.41,395.54C429.41,409.874 441.206,421.67 455.54,421.67C469.874,421.67 481.67,409.874 481.67,395.54C481.654,381.215 469.874,369.432 455.55,369.41ZM504.16,249.76C497.581,249.757 491.478,246.251 488.16,240.57C454.189,182.384 391.679,146.496 324.303,146.496C290.558,146.496 257.417,155.498 228.31,172.57C225.459,174.246 222.212,175.129 218.905,175.129C208.724,175.129 200.346,166.751 200.346,156.57C200.346,149.999 203.835,143.9 209.5,140.57C244.306,120.142 283.942,109.369 324.301,109.369C404.842,109.369 479.566,152.272 520.17,221.83C521.827,224.667 522.7,227.894 522.7,231.18C522.7,241.347 514.337,249.715 504.17,249.72L504.16,249.76Z" style="fill:rgb(20, 80, 159);fill-rule:nonzero;"/>
    </g>
</svg>
