<svg viewBox="0 0 952 490" xmlns="http://www.w3.org/2000/svg" style="fill-rule:evenodd;clip-rule:evenodd;stroke-linejoin:round;stroke-miterlimit:2;">
    <g transform="matrix(1,0,0,1,-0.0312597,0.0373206)">
        <path d="M610.91,383.63L347.58,383.77C334.792,384.033 324.416,394.625 324.416,407.415C324.416,420.205 334.792,430.797 347.58,431.06L610.92,430.91C623.889,430.91 634.56,420.239 634.56,407.27C634.56,394.301 623.889,383.63 610.92,383.63L610.91,383.63ZM683.11,239.79L683.05,239.79L706.32,256.65L837.32,279.21C848.878,281.158 859.875,285.594 869.55,292.21C891.377,306.922 904.491,331.588 904.48,357.91L904.99,383.49L873.21,383.49C860.241,383.49 849.57,394.161 849.57,407.13C849.57,420.099 860.241,430.77 873.21,430.77L904.99,430.77C930.641,430.743 951.738,409.641 951.76,383.99L951.76,357.91C951.76,315.8 930.93,276.58 895.37,252.57C880.263,242.384 863.142,235.563 845.17,232.57L725.13,211.91L714.12,204.2C704.202,195.86 689.183,197.141 680.82,207.04C672.672,216.726 673.693,231.332 683.11,239.79ZM348.175,110.641L348.19,110.62C377.32,107.48 507.71,98.71 552.82,117.51C562.693,120.546 569.476,129.729 569.476,140.058C569.476,152.999 558.827,163.648 545.886,163.648C545.247,163.648 543.705,163.51 543.57,163.5C543.26,163.47 540.631,163.052 539.65,162.81L520.68,157.641L523.53,158.11C510.885,155.948 498.079,154.864 485.25,154.87L387,154.87C356.166,154.915 325.71,161.697 297.77,174.74L121.67,264.58L69.42,262.23L47.52,347.91C46.271,355.115 50.757,362.172 57.81,364.1L79.71,371.53L79.71,371.51C89.28,374.756 95.758,383.795 95.758,393.9C95.758,406.87 85.085,417.543 72.115,417.543C69.532,417.543 66.966,417.12 64.52,416.29L44.64,409.55C13.816,400.705 -5.212,369.198 1.31,337.8L25.81,241.91C30.067,225.382 45.384,213.946 62.44,214.56L111.32,216.76L276.98,132.28C299.555,121.706 323.529,114.419 348.17,110.64L348.175,110.641Z" style="fill:rgb(240,179,49);fill-rule:nonzero;"/>
        <path d="M212.24,296.55C159.373,296.55 115.87,340.053 115.87,392.92C115.87,445.787 159.373,489.29 212.24,489.29C265.107,489.29 308.61,445.787 308.61,392.92C308.61,392.917 308.61,392.913 308.61,392.91C308.544,340.07 265.08,296.61 212.24,296.55ZM743.19,296.55C690.323,296.55 646.82,340.053 646.82,392.92C646.82,445.787 690.323,489.29 743.19,489.29C796.057,489.29 839.56,445.787 839.56,392.92C839.56,392.917 839.56,392.913 839.56,392.91C839.494,340.07 796.03,296.61 743.19,296.55ZM743.19,443.87C715.212,443.87 692.19,420.848 692.19,392.87C692.19,364.892 715.212,341.87 743.19,341.87C771.168,341.87 794.19,364.892 794.19,392.87C794.19,392.883 794.19,392.897 794.19,392.91C794.19,420.888 771.168,443.91 743.19,443.91L743.19,443.87ZM212.24,443.87C212.22,443.87 212.2,443.87 212.18,443.87C184.202,443.87 161.18,420.848 161.18,392.87C161.18,364.892 184.202,341.87 212.18,341.87C240.158,341.87 263.18,364.892 263.18,392.87C263.202,420.84 240.21,443.877 212.24,443.91L212.24,443.87ZM524.93,231.32L727.78,3.51C729.787,1.255 732.666,-0.037 735.684,-0.037C738.282,-0.037 740.792,0.92 742.73,2.65L792.55,47.03C794.802,49.036 796.092,51.913 796.092,54.93C796.092,57.525 795.137,60.032 793.41,61.97L590.52,289.84C589.128,291.398 587.317,292.498 585.326,293.025L525.32,310.48C524.381,310.754 523.408,310.899 522.43,310.909L522.43,311.56C522.43,312.106 521.986,312.55 521.44,312.55L383.42,312.55C382.874,312.55 382.43,312.106 382.43,311.56L382.43,297.47C382.43,296.924 382.874,296.48 383.42,296.48L512.231,296.48L522.32,236.65C522.448,235.968 522.642,235.311 522.892,234.685C523.352,233.456 524.039,232.313 524.93,231.32ZM535.56,285.44L561.311,277.956L540.024,258.997L535.56,285.44ZM509.51,265.56C509.51,265.014 509.066,264.57 508.52,264.57L383.42,264.57C382.874,264.57 382.43,265.014 382.43,265.56L382.43,279.65C382.43,280.196 382.874,280.64 383.42,280.64L508.52,280.64C509.066,280.64 509.51,280.196 509.51,279.65L509.51,265.56ZM710.727,54.564L547.73,237.55L581.73,267.85L744.73,84.85L710.727,54.564ZM509.51,230.68C509.51,230.134 509.066,229.69 508.52,229.69L383.42,229.69C382.874,229.69 382.43,230.134 382.43,230.68L382.43,245.7C382.43,246.246 382.874,246.69 383.42,246.69L508.52,246.69C509.066,246.69 509.51,246.246 509.51,245.7L509.51,230.68ZM724.792,38.738L758.801,69.027L770.55,55.83L736.55,25.54L724.792,38.738Z" style="fill:rgb(149,203,193);fill-rule:nonzero;"/>
    </g>
</svg>
